<svg width="215" height="176" viewBox="0 0 215 176" fill="none" xmlns="http://www.w3.org/2000/svg">
<path d="M168.407 0.3L169.796 4.78113C170.006 5.46113 170.539 5.99369 171.219 6.20398L175.7 7.59258C176.1 7.71601 176.1 8.28285 175.7 8.40742L171.219 9.79599C170.539 10.0063 170.006 10.5388 169.796 11.2188L168.407 15.7C168.284 16.1 167.717 16.1 167.592 15.7L166.204 11.2188C165.993 10.5388 165.461 10.0063 164.781 9.79599L160.3 8.40742C159.9 8.28399 159.9 7.71715 160.3 7.59258L164.781 6.20398C165.461 5.99369 165.993 5.46113 166.204 4.78113L167.592 0.3C167.717 -0.1 168.284 -0.1 168.407 0.3Z" fill="#2C7F99"/>
<path d="M199.407 80.3L200.796 84.7811C201.006 85.4611 201.539 85.9937 202.219 86.204L206.7 87.5926C207.1 87.716 207.1 88.2828 206.7 88.4074L202.219 89.796C201.539 90.0063 201.006 90.5388 200.796 91.2188L199.407 95.7C199.284 96.1 198.717 96.1 198.592 95.7L197.204 91.2188C196.993 90.5388 196.461 90.0063 195.781 89.796L191.3 88.4074C190.9 88.284 190.9 87.7172 191.3 87.5926L195.781 86.204C196.461 85.9937 196.993 85.4611 197.204 84.7811L198.592 80.3C198.717 79.9 199.284 79.9 199.407 80.3Z" fill="#2C7F99"/>
<path opacity="0.4" d="M200.272 146.432L202.834 154.7C203.222 155.954 204.205 156.937 205.459 157.325L213.726 159.886C214.464 160.114 214.464 161.16 213.726 161.39L205.459 163.951C204.205 164.339 203.222 165.322 202.834 166.576L200.272 174.844C200.044 175.582 198.999 175.582 198.769 174.844L196.207 166.576C195.819 165.322 194.837 164.339 193.582 163.951L185.315 161.39C184.577 161.162 184.577 160.116 185.315 159.886L193.582 157.325C194.837 156.937 195.819 155.954 196.207 154.7L198.769 146.432C198.999 145.694 200.044 145.694 200.272 146.432Z" fill="#2C7F99"/>
<circle opacity="0.3" cx="25.9998" cy="25" r="5" fill="#2C7F99"/>
<path d="M187.5 95.0014C187.5 139.736 151.232 176 106.498 176C95.5244 176 85.0634 173.818 75.5216 169.863C49.4423 159.06 30.233 135.026 26.2617 106.134C25.7569 102.495 25.4998 98.7784 25.4998 95.0014C25.4998 50.264 61.7638 14 106.498 14C151.232 14 187.5 50.264 187.5 95.0014Z" fill="#2C7F99" fill-opacity="0.2"/>
<ellipse cx="107.21" cy="95.7102" rx="51.8684" ry="51.8684" fill="#2C7F99"/>
<path d="M101.59 107.729C100.879 107.729 100.204 107.444 99.7059 106.946L89.6436 96.8841C88.6125 95.853 88.6125 94.1464 89.6436 93.1153C90.6747 92.0841 92.3814 92.0841 93.4125 93.1153L101.59 101.293L119.866 83.0175C120.897 81.9864 122.604 81.9864 123.635 83.0175C124.666 84.0486 124.666 85.7552 123.635 86.7864L103.475 106.946C102.977 107.444 102.301 107.729 101.59 107.729Z" fill="white"/>
<path d="M10.5606 58.496L11.2959 63.1294C11.4071 63.8324 11.8582 64.4355 12.5013 64.7406L16.7386 66.7542C17.1169 66.9334 17.0361 67.4944 16.6224 67.5607L11.989 68.2959C11.286 68.4071 10.6829 68.8582 10.3778 69.5013L8.36423 73.7386C8.18501 74.1169 7.624 74.0361 7.55776 73.6224L6.82248 68.989C6.71133 68.2859 6.26016 67.6829 5.61711 67.3777L1.37981 65.3643C1.0015 65.185 1.08235 64.624 1.49603 64.5577L6.12942 63.8225C6.83246 63.7113 7.43553 63.2602 7.74065 62.6171L9.75418 58.3798C9.93452 58.0017 10.4955 58.0825 10.5606 58.496Z" fill="#2C7F99"/>
<circle opacity="0.3" cx="12.9998" cy="144" r="5" fill="#2C7F99"/>
</svg>
