<svg width="32" height="32" viewBox="0 0 32 32" fill="none" xmlns="http://www.w3.org/2000/svg">
<path fill-rule="evenodd" clip-rule="evenodd" d="M13.2764 10.8095L10.7246 14.2621C9.65398 15.7106 9.11868 16.4348 9.41364 17.0043C9.41852 17.0137 9.42355 17.0231 9.42873 17.0324C9.74119 17.5931 10.6657 17.5931 12.5148 17.5931C13.5423 17.5931 14.0561 17.5931 14.3783 17.8962L14.395 17.9123L17.6216 14.104L17.605 14.0879C17.2895 13.7783 17.2895 13.2847 17.2895 12.2974V12.0393C17.2895 9.30216 17.2895 7.93356 16.52 7.69776C15.7506 7.46196 14.9258 8.57781 13.2764 10.8095Z" fill="#C28800"/>
<path opacity="0.5" d="M14.7106 19.7026L14.7106 19.9606C14.7106 22.6978 14.7106 24.0664 15.48 24.3022C16.2495 24.538 17.0743 23.4221 18.7238 21.1904L21.2755 17.7379C22.3462 16.2894 22.8815 15.5652 22.5865 14.9957C22.5816 14.9863 22.5766 14.9769 22.5714 14.9676C22.259 14.4068 21.3344 14.4068 19.4854 14.4068C18.4578 14.4068 17.9441 14.4068 17.6218 14.1038L14.3952 17.9121C14.7107 18.2217 14.7106 18.7153 14.7106 19.7026Z" fill="#C28800"/>
</svg>
