<svg width="32" height="32" viewBox="0 0 32 32" fill="none" xmlns="http://www.w3.org/2000/svg">
<path opacity="0.5" fill-rule="evenodd" clip-rule="evenodd" d="M17.899 7.79362C17.5904 7.66675 17.1991 7.66675 16.4167 7.66675C15.6342 7.66675 15.2429 7.66675 14.9343 7.79362C14.5228 7.96277 14.1959 8.28723 14.0255 8.69561C13.9477 8.88203 13.9172 9.09883 13.9053 9.41507C13.8878 9.87982 13.6476 10.31 13.2418 10.5425C12.836 10.7751 12.3405 10.7664 11.9262 10.549C11.6443 10.4012 11.4399 10.3189 11.2383 10.2926C10.7967 10.2349 10.3502 10.3537 9.9968 10.6227C9.73178 10.8246 9.53616 11.1608 9.14492 11.8334C8.75368 12.5059 8.55806 12.8422 8.51446 13.1708C8.45632 13.6091 8.57598 14.0523 8.84712 14.403C8.97088 14.563 9.14481 14.6976 9.41475 14.8659C9.8116 15.1134 10.0669 15.535 10.0669 16.0001C10.0669 16.4652 9.81155 16.8867 9.41475 17.1341C9.14476 17.3025 8.97081 17.437 8.84704 17.5971C8.5759 17.9478 8.45624 18.391 8.51437 18.8293C8.55798 19.158 8.7536 19.4942 9.14484 20.1667C9.53608 20.8393 9.7317 21.1755 9.99671 21.3774C10.3501 21.6464 10.7967 21.7652 11.2382 21.7075C11.4398 21.6812 11.6442 21.599 11.9261 21.4511C12.3404 21.2338 12.8359 21.2251 13.2418 21.4576C13.6476 21.6902 13.8878 22.1204 13.9053 22.5851C13.9172 22.9014 13.9477 23.1181 14.0255 23.3046C14.1959 23.7129 14.5228 24.0374 14.9343 24.2065C15.2429 24.3334 15.6342 24.3334 16.4167 24.3334C17.1991 24.3334 17.5904 24.3334 17.899 24.2065C18.3105 24.0374 18.6374 23.7129 18.8079 23.3046C18.8857 23.1181 18.9161 22.9013 18.928 22.5851C18.9456 22.1203 19.1857 21.6902 19.5915 21.4576C19.9973 21.225 20.4928 21.2337 20.9072 21.451C21.1891 21.5989 21.3934 21.6811 21.595 21.7075C22.0366 21.7651 22.4832 21.6464 22.8365 21.3773C23.1016 21.1755 23.2972 20.8392 23.6884 20.1667C24.0797 19.4942 24.2753 19.1579 24.3189 18.8292C24.377 18.391 24.2573 17.9478 23.9862 17.5971C23.8624 17.437 23.6885 17.3024 23.4185 17.1341C23.0217 16.8866 22.7664 16.4651 22.7664 16C22.7664 15.535 23.0218 15.1135 23.4185 14.8661C23.6885 14.6977 23.8625 14.5631 23.9863 14.403C24.2574 14.0524 24.3771 13.6091 24.319 13.1709C24.2754 12.8422 24.0797 12.5059 23.6885 11.8334C23.2973 11.1609 23.1016 10.8246 22.8366 10.6228C22.4833 10.3537 22.0367 10.235 21.5951 10.2927C21.3935 10.319 21.1891 10.4012 20.9072 10.5491C20.4929 10.7664 19.9974 10.7751 19.5916 10.5425C19.1857 10.31 18.9456 9.8798 18.928 9.41503C18.9161 9.09881 18.8857 8.88202 18.8079 8.69561C18.6374 8.28723 18.3105 7.96277 17.899 7.79362Z" fill="#8A8AA3"/>
<path d="M18.9356 16C18.9356 17.3807 17.8078 18.5 16.4166 18.5C15.0253 18.5 13.8975 17.3807 13.8975 16C13.8975 14.6193 15.0253 13.5 16.4166 13.5C17.8078 13.5 18.9356 14.6193 18.9356 16Z" fill="#8A8AA3"/>
</svg>
