<svg width="375" height="425" viewBox="0 0 375 425" fill="none" xmlns="http://www.w3.org/2000/svg">
<g opacity="0.5" filter="url(#filter0_f_291_333)">
<path d="M10.215 156.204L-2.52652 153.182C-66.5775 137.99 -127.174 188.809 -123.369 254.527C-120.793 299.026 -88.6019 336.225 -44.9332 345.164L-0.731506 354.212C26.6028 359.807 55.039 354.185 78.187 338.608L161.943 282.246C178.31 271.232 197.471 265.101 217.191 264.567L316.813 261.869C341.466 261.202 365.079 251.795 383.438 235.328L435.058 189.03C470.957 156.831 463.87 98.734 421.283 76.1096C401.078 65.3755 376.879 65.293 356.601 75.8892L289.631 110.884C274.764 118.652 258.24 122.709 241.466 122.71L165.775 122.71C152.709 122.71 139.759 125.172 127.605 129.968L72.3872 151.754C52.6055 159.559 30.9066 161.112 10.215 156.204Z" fill="#D9D9D9"/>
<path d="M10.215 156.204L-2.52652 153.182C-66.5775 137.99 -127.174 188.809 -123.369 254.527C-120.793 299.026 -88.6019 336.225 -44.9332 345.164L-0.731506 354.212C26.6028 359.807 55.039 354.185 78.187 338.608L161.943 282.246C178.31 271.232 197.471 265.101 217.191 264.567L316.813 261.869C341.466 261.202 365.079 251.795 383.438 235.328L435.058 189.03C470.957 156.831 463.87 98.734 421.283 76.1096C401.078 65.3755 376.879 65.293 356.601 75.8892L289.631 110.884C274.764 118.652 258.24 122.709 241.466 122.71L165.775 122.71C152.709 122.71 139.759 125.172 127.605 129.968L72.3872 151.754C52.6055 159.559 30.9066 161.112 10.215 156.204Z" fill="url(#paint0_linear_291_333)"/>
</g>
<defs>
<filter id="filter0_f_291_333" x="-191.539" y="0" width="717.66" height="424.325" filterUnits="userSpaceOnUse" color-interpolation-filters="sRGB">
<feFlood flood-opacity="0" result="BackgroundImageFix"/>
<feBlend mode="normal" in="SourceGraphic" in2="BackgroundImageFix" result="shape"/>
<feGaussianBlur stdDeviation="34" result="effect1_foregroundBlur_291_333"/>
</filter>
<linearGradient id="paint0_linear_291_333" x1="425" y1="215.919" x2="-85.6907" y2="337.71" gradientUnits="userSpaceOnUse">
<stop stop-color="#2C7F99"/>
<stop offset="0.34" stop-color="#1A4C5C"/>
<stop offset="0.635" stop-color="#2C7F99"/>
<stop offset="1" stop-color="#73ACBE"/>
</linearGradient>
</defs>
</svg>
